PathFileType	4	(X/Y/Z)	7_2_83_p0_0-383_filt_butterworth.trc
DataRate	CameraRate	NumFrames	NumMarkers	Units	OrigDataRate	OrigDataStartFrame	OrigNumFrames
57.0	57.0	6	27	m	57.0	239	383
Frame#	Time	RHip			RKnee			RAnkle			RBigToe			RSmallToe			RHeel			LHip			LKnee			LAnkle			LBigToe			LSmallToe			LHeel			Neck			Head			Nose			RShoulder			RElbow			RWrist			RThumb			RIndex			RPinky			LShoulder			LElbow			LWrist			LThumb			LIndex			LPinky			
		X1	Y1	Z1	X2	Y2	Z2	X3	Y3	Z3	X4	Y4	Z4	X5	Y5	Z5	X6	Y6	Z6	X7	Y7	Z7	X8	Y8	Z8	X9	Y9	Z9	X10	Y10	Z10	X11	Y11	Z11	X12	Y12	Z12	X13	Y13	Z13	X14	Y14	Z14	X15	Y15	Z15	X16	Y16	Z16	X17	Y17	Z17	X18	Y18	Z18	X19	Y19	Z19	X20	Y20	Z20	X21	Y21	Z21	X22	Y22	Z22	X23	Y23	Z23	X24	Y24	Z24	X25	Y25	Z25	X26	Y26	Z26	X27	Y27	Z27	
239	4.192982456140351	0.31089029559012676	0.35636047576290975	1.2003328125583475	0.3194251644774899	0.305896569537961	1.5911671400617422	0.28802853812176565	0.32601808213824335	2.021945725396315	0.26234383529676353	0.11127430619896422	2.005096210146239	0.33032059301556843	0.16768569795893604	2.027548077290418	0.2605969745677236	0.35969507298990844	2.0907378116591726	0.10685299760607717	0.363320738383687	1.2209940003057378	0.09802782922763956	0.3040355213259818	1.5715287075705646	0.12374454551697198	0.3412044670583229	2.037169428771722	0.10182252669916042	0.11990768836106817	2.0290534239424316	0.04426374858055504	0.1678803855547726	2.011281599332788	0.13870319374029214	0.36457317827429536	2.0930306983291964	0.17854548711837068	0.39499538857815886	0.607178963924691	0.19276179231393636	0.4452125073462682	0.3806665952145759	0.24207074977725482	0.3476467221944329	0.4891683264321087	0.34595578481216	0.393488572116091	0.6676793009037207	0.5363797425879979	0.3064346000660741	0.6631578484053788	0.3636710324107544	0.26086526613380395	0.5481198818625084	0.2703288373192568	0.2826303770438786	0.5091944865530722	0.2776712741589434	0.29980147344700586	0.48203450626219096	0.31282510395281865	0.2742311333989693	0.4923814681885175	0.031627578413417685	0.39363893867308464	0.702494602608931	-0.1026860709098496	0.46339685160337885	0.9106095179103736	-0.05045421777164835	0.36552198870838487	1.0886983313111234	0.009164618324692054	0.42045616441622324	1.1652773369990388	0.0013881181634171724	0.411743146578719	1.2035944443946027	-0.06981390475239888	0.43039315552946134	1.2560951937664124
240	4.2105263157894735	0.31087164277984186	0.3563986512905394	1.2004065240546327	0.3184259663756716	0.30320278548353796	1.5896211062885897	0.2898229895977515	0.3269098420648851	2.022460288613678	0.26251723829730705	0.11149331204244808	2.0051566702843315	0.330375918477506	0.16784620365011196	2.027600631213854	0.25945640589035857	0.3568255303889908	2.088167940801198	0.10592268719794055	0.3591969148676842	1.221207356223711	0.09805526696722115	0.30404083252456	1.5715461439230427	0.12356777605778357	0.34202632291534557	2.035856833827877	0.1035360219299643	0.12015362941291013	2.025126414073641	0.04400347174053097	0.1677334892978758	2.0111695068227298	0.13870943353746762	0.3647761824452519	2.092533722575994	0.1789511604742231	0.3937594063354968	0.6069130859902984	0.19277738201541678	0.4455016211572431	0.3807791484690936	0.24211464377852637	0.34776776302141715	0.48922478979196726	0.3460141584599732	0.3934611219813949	0.6675747800031011	0.5342982752193705	0.295629401161154	0.6604762160280762	0.36329323784904577	0.2606670528588226	0.5479403339981544	0.27038008520685297	0.28303641406135177	0.509112599993989	0.2782713327592831	0.3022318807472462	0.4823408502254789	0.3122592538303389	0.2739420502586483	0.4927929680753763	0.03180164919069804	0.39377763533124516	0.701432409214879	-0.10115830155252668	0.4641076236577234	0.9106035778908808	-0.04956720101420794	0.3692257854003061	1.091646766304862	0.01035723634438607	0.42148735548779914	1.1652513921286312	0.002707522736213508	0.4154404373124139	1.2041556378544827	-0.06638629729639624	0.4338302512604947	1.2565922434490338
241	4.228070175438597	0.31082046455712287	0.3562292275667615	1.2005670117349854	0.3180652667671031	0.3022316879858005	1.58907121173806	0.2912188386113493	0.3275768533203213	2.022873054068214	0.2626175405723804	0.11165111284592712	2.005185515388492	0.3303978563907105	0.16796523995825927	2.0275518040562615	0.25856083617206616	0.3529613084052924	2.085990856269909	0.10527318362322215	0.35611158789297587	1.2213944726535864	0.09808814647244964	0.3040876824600395	1.571511178237484	0.12343327762721279	0.34264252694694824	2.0348739921084835	0.10410597274348257	0.1224743389099961	2.0240036447496252	0.04390745424574788	0.16769716126352893	2.0111605577495575	0.1389951993186938	0.364851132371255	2.0913096893735927	0.17893471103306358	0.3938134279757908	0.6069825732829108	0.19287589643770878	0.44559395097684745	0.3809558490144467	0.24294828421545694	0.3479238948096153	0.4893550407011007	0.34610887708694327	0.3934511638073244	0.6674643260577061	0.533502499654421	0.2889930174017263	0.6582300671978217	0.36216881444144694	0.25995629996867087	0.5478235437935162	0.27073774107290494	0.28417590874916426	0.5087966823385653	0.2775468585187839	0.3025457364621031	0.482294121837596	0.3110912541038881	0.27129265653101603	0.4926546777805676	0.03197180084147162	0.3937309304495126	0.7001257709435513	-0.09807984005435749	0.46464890421332256	0.9103768782912527	-0.04929259290217954	0.37277760380667674	1.0932513072794312	0.010796066842014531	0.4221934176928056	1.164956668403393	0.003018135323346353	0.42133076785697937	1.2022828401166674	-0.06084223946599041	0.42805087981763557	1.2517018180695532
242	4.245614035087719	0.3104792843014482	0.3550355222179536	1.2006487946148283	0.31808840801381033	0.3022707417868864	1.5891095110481128	0.2917303729942514	0.3277811979421347	2.0231008291136314	0.2626097484224901	0.1116746476921316	2.005234045563611	0.330378694867399	0.16796656157538623	2.0274555807160413	0.2582081129920429	0.3501185288567829	2.0850517711462673	0.10504221132320953	0.35497066527791205	1.2215393748217964	0.0981038790969837	0.3041292682260738	1.5714712228176628	0.12337888467379993	0.3428673735131208	2.034546630663066	0.10383480348112784	0.12515074830078993	2.0254686032856877	0.04400815213304245	0.16781412232173418	2.0116257310977765	0.13944385134989515	0.3649477235888496	2.0897551859090715	0.17883216389899018	0.39411271449681345	0.6071013542147736	0.19305382653800687	0.44545728046852623	0.3811017704400764	0.2449726001470801	0.3482977697080137	0.4895487281510903	0.3461073899933872	0.39335148356980465	0.6673579483233962	0.5334803882063185	0.28710280362085394	0.6573746467775864	0.360642265646495	0.25908615819677316	0.5477467829887429	0.2712894864835318	0.28587786030994655	0.5074507422180088	0.27587478858399894	0.30083741873278225	0.48155195559206815	0.3098640199744574	0.26529732759052316	0.491012769338193	0.03185874229106936	0.3926716437875719	0.6991802335106625	-0.09445763533461357	0.46479896150057937	0.9099055586696468	-0.049311792581648244	0.3756362991218993	1.0934013043709712	0.010773847625554677	0.42251554489074084	1.1646376685334028	0.0031050798850932454	0.4238550916924106	1.1975775311164678	-0.05445043683848808	0.4164279291673897	1.2434095120162438
243	4.2631578947368425	0.30958165614847966	0.3521444644141444	1.2001284481975065	0.31818352352935786	0.302459271244628	1.5892554560663403	0.29131307558554886	0.3275257229660983	2.023134808261752	0.2625176538090662	0.11157291366931324	2.0052452369517746	0.3303338704303934	0.16789055727605418	2.027352043874436	0.2581903843461513	0.34907671436035087	2.0849779226793435	0.10503482001728054	0.3550510643820909	1.2212548067149664	0.09809592410913065	0.3041215621834755	1.5714587648004053	0.12337701894552516	0.3428642806921245	2.0346444478342365	0.10367598037842612	0.12660866148311917	2.02775516521539	0.04425631483207935	0.16807027496624877	2.01289583811701	0.13978238663840784	0.36504023405321384	2.088646556376409	0.17876538183407134	0.3942544214191084	0.6071565468869973	0.19319900152280067	0.44558840313167714	0.38121649652387635	0.24732765129497455	0.34880544727848234	0.48975586796430054	0.3460271275861002	0.39320169002952826	0.6672783970148236	0.5336615160784304	0.2876281457725308	0.6574458548867207	0.35945094884784073	0.2586255089757552	0.5472731395512119	0.271795129855325	0.2874623483960197	0.5053874207708337	0.2743189602904659	0.2982525545275794	0.48009156519601554	0.30919664318200135	0.2568896544924872	0.4876064778836939	0.031116764933452577	0.38974080718958176	0.69883076680791	-0.09179832809547778	0.46462236769756193	0.9098643372820069	-0.04905743459377131	0.378937397186731	1.09313391909153	0.010666278693790655	0.42257615465374665	1.1643939247781312	0.003301573269772212	0.42096721892632033	1.19141993530222	-0.04847091221110979	0.4070858908881907	1.2353522903548873
244	4.280701754385965	0.3083273055784047	0.3484655912988245	1.198465961203079	0.3182422365634753	0.3024866216274289	1.5893293246946831	0.2899187648872188	0.3268893185646747	2.022732492262515	0.262417685857512	0.11143473274673402	2.005221697369918	0.3302896345588927	0.16780551592540463	2.027297947056491	0.25824997331089133	0.3490888505037339	2.085120815047744	0.10503644937190018	0.3554901254706707	1.2197797185371795	0.09808176538793559	0.304082532370441	1.5714536632292235	0.12339185690874269	0.34282029766248356	2.0348268396438045	0.10383487397086975	0.1269960032723205	2.0298806995020717	0.04452551293274758	0.16838745932507038	2.014583726311411	0.13987815138454154	0.3650580158303544	2.088241243644926	0.17872922636110822	0.3942475590217403	0.6071499924390718	0.19289683130995952	0.447272512337208	0.3815192089580735	0.2483678114549197	0.34917884163334045	0.48989618388117595	0.3459200177470022	0.39308045060221264	0.6672444577867266	0.5337541016725138	0.28856811716634756	0.6576954085800171	0.35888342357321507	0.2586480739679244	0.5458327197986856	0.27216005860302456	0.28854029805016007	0.5036823901476989	0.2736029344966585	0.29635381907763003	0.47846247323645774	0.30894005998808527	0.24807438844362104	0.4834592742077975	0.02972966156472759	0.3856348771469487	0.6988461218155871	-0.09069017226125262	0.4641825544273141	0.9111567179799942	-0.04841365073965317	0.3827554041022384	1.0929709276446387	0.010620118959216027	0.422554766317749	1.1642340729740746	0.003196731903406797	0.41494786332709405	1.1861187600673602	-0.04374042937781665	0.40345876759089017	1.2296797511594342
